<svg width="14" height="14" viewBox="0 0 14 14" fill="none" xmlns="http://www.w3.org/2000/svg">
<path d="M6.08366 11.7503C7.34093 11.7501 8.56198 11.3292 9.55237 10.5547L12.6662 13.6685L13.6678 12.6669L10.554 9.55307C11.3289 8.56259 11.75 7.34126 11.7503 6.08366C11.7503 2.9592 9.20812 0.416992 6.08366 0.416992C2.9592 0.416992 0.416992 2.9592 0.416992 6.08366C0.416992 9.20812 2.9592 11.7503 6.08366 11.7503ZM6.08366 1.83366C8.42753 1.83366 10.3337 3.73978 10.3337 6.08366C10.3337 8.42753 8.42753 10.3337 6.08366 10.3337C3.73978 10.3337 1.83366 8.42753 1.83366 6.08366C1.83366 3.73978 3.73978 1.83366 6.08366 1.83366Z" fill="#A9A8B3"/>
</svg>
